<?xml version="1.0" encoding="UTF-8" standalone="no"?>
<!-- Created with Inkscape (http://www.inkscape.org/) -->

<svg
   xmlns:dc="http://purl.org/dc/elements/1.1/"
   xmlns:cc="http://creativecommons.org/ns#"
   xmlns:rdf="http://www.w3.org/1999/02/22-rdf-syntax-ns#"
   xmlns:svg="http://www.w3.org/2000/svg"
   xmlns="http://www.w3.org/2000/svg"
   xmlns:sodipodi="http://sodipodi.sourceforge.net/DTD/sodipodi-0.dtd"
   xmlns:inkscape="http://www.inkscape.org/namespaces/inkscape"
   id="svg5909"
   height="214.27379"
   width="345.65811"
   version="1.1"
   inkscape:version="0.48.3.1 r9886"
   sodipodi:docname="mastercard.svg">
  <sodipodi:namedview
     pagecolor="#ffffff"
     bordercolor="#666666"
     borderopacity="1"
     objecttolerance="10"
     gridtolerance="10"
     guidetolerance="10"
     inkscape:pageopacity="0"
     inkscape:pageshadow="2"
     inkscape:window-width="1600"
     inkscape:window-height="854"
     id="namedview29"
     showgrid="false"
     inkscape:zoom="2.3402609"
     inkscape:cx="189.98412"
     inkscape:cy="51.873787"
     inkscape:window-x="0"
     inkscape:window-y="24"
     inkscape:window-maximized="1"
     inkscape:current-layer="svg5909" />
  <defs
     id="defs5911">
    <filter
       id="filter5794"
       color-interpolation-filters="sRGB">
      <feFlood
         id="feFlood5796"
         result="flood"
         flood-color="rgb(33,39,125)"
         flood-opacity="1" />
      <feComposite
         id="feComposite5798"
         operator="in"
         result="composite1"
         in2="SourceGraphic"
         in="flood" />
      <feOffset
         id="feOffset5800"
         result="offset"
         dx="-2.2"
         dy="2.5" />
      <feComposite
         id="feComposite5802"
         operator="over"
         result="composite2"
         in2="offset"
         in="SourceGraphic" />
    </filter>
  </defs>
  <metadata
     id="metadata5914">
    <rdf:RDF>
      <cc:Work
         rdf:about="">
        <dc:format>image/svg+xml</dc:format>
        <dc:type
           rdf:resource="http://purl.org/dc/dcmitype/StillImage" />
        <dc:title />
      </cc:Work>
    </rdf:RDF>
  </metadata>
  <rect
     id="rect3878-6"
     rx="18"
     ry="18"
     height="214.27379"
     width="345.65811"
     y="1.3671877e-07"
     x="-3.623047e-06"
     style="fill:#21277d;fill-rule:evenodd" />
  <rect
     id="rect5023-3"
     height="45.702362"
     width="345.65811"
     y="16.428589"
     x="-3.623047e-06"
     style="fill:#272725;fill-rule:evenodd" />
  <g
     transform="matrix(0.9242073,0,0,0.9242073,-495.8392,763.51144)"
     id="g5348">
    <path
       style="fill:#cc0001"
       inkscape:connector-curvature="0"
       transform="translate(20.151111,11.367284)"
       d="m 724.97474,-690.96722 c 0,37.26827 -30.2119,67.48017 -67.48017,67.48017 -37.26827,0 -67.48017,-30.2119 -67.48017,-67.48017 0,-37.26827 30.2119,-67.48018 67.48017,-67.48018 37.26827,0 67.48017,30.21191 67.48017,67.48018 z"
       id="path5206" />
    <path
       style="fill:#fe9900"
       inkscape:connector-curvature="0"
       d="m 769.34375,-747.09375 c -21.33066,0 -40.32163,9.92239 -52.6875,25.375 h 13.6875 c 1.93261,2.41391 3.6899,4.95646 5.28125,7.625 h -24.25 c -1.3247,2.22229 -2.52678,4.52841 -3.59375,6.90625 H 739.25 c 1.10447,2.461 2.03626,5.01819 2.84375,7.625 h -37.1875 c 0.202,-0.65177 0.40391,-1.29275 0.625,-1.9375 -0.97912,2.85405 -1.78232,5.80013 -2.375,8.8125 h 40.6875 c 0.83423,4.23802 1.28125,8.61098 1.28125,13.09375 0,7.96883 -1.39992,15.59651 -3.9375,22.6875 h -35.375 c 3.25817,9.11885 8.44006,17.32991 15.03125,24.15625 -0.85871,-0.89845 -1.68781,-1.81218 -2.5,-2.75 h 10.3125 c -1.62507,1.87545 -3.33646,3.68817 -5.15625,5.375 12.03977,11.16762 28.12693,18 45.84375,18 37.26827,0 67.5,-30.20048 67.5,-67.46875 0,-37.26827 -30.23173,-67.5 -67.5,-67.5 z m -48.5,114.34375 c 0.43473,0.45024 0.8655,0.90571 1.3125,1.34375 -0.44173,-0.43644 -0.88315,-0.89452 -1.3125,-1.34375 z m -15.03125,-24.15625 c -0.31736,-0.88644 -0.62503,-1.78461 -0.90625,-2.6875 0.2816,0.90823 0.58777,1.79614 0.90625,2.6875 z M 705.53125,-701.5 c 0.22109,-0.64475 0.44768,-1.30116 0.6875,-1.9375 -0.24069,0.63742 -0.46573,1.29105 -0.6875,1.9375 z m 5.84375,-12.59375 c 0.39725,-0.66583 0.79979,-1.31731 1.21875,-1.96875 -0.41632,0.647 -0.82419,1.30685 -1.21875,1.96875 z m 1.21875,-1.96875 c 0.41896,-0.65144 0.84092,-1.30143 1.28125,-1.9375 -0.44129,0.63657 -0.86157,1.28527 -1.28125,1.9375 z M 713.875,-718 c 0.88066,-1.27215 1.81714,-2.514 2.78125,-3.71875 -0.96863,1.21042 -1.89635,2.44225 -2.78125,3.71875 z m -6.09375,10.84375 c -0.27577,0.61529 -0.55479,1.21886 -0.8125,1.84375 0.25458,-0.61776 0.5404,-1.23685 0.8125,-1.84375 z m -5.21875,37.1875 c 0.0976,0.68351 0.22584,1.35451 0.34375,2.03125 -0.11919,-0.67722 -0.24501,-1.3472 -0.34375,-2.03125 z M 708.75,-650 h 29.53125 c -1.29677,2.64746 -2.75518,5.18608 -4.375,7.625 H 713.125 c -1.61727,-2.43467 -3.07913,-4.98249 -4.375,-7.625 z"
       id="path5206-0" />
  </g>
  <path
     style="fill:#21277d;fill-opacity:1"
     d="M 78.40625 120.03125 L 72.59375 153.8125 L 79.1875 153.8125 L 83.34375 130.15625 L 84.1875 153.84375 L 87.9375 153.84375 L 97.4375 130.15625 L 93.28125 153.8125 L 99.875 153.8125 L 105.6875 120.03125 L 95.78125 120.03125 L 88.40625 141.0625 L 88.125 120.03125 L 78.40625 120.03125 z M 205.03125 120.40625 C 202.83383 120.40626 200.78352 120.99314 198.875 122.1875 C 196.97677 123.38192 195.35146 125.09642 194 127.3125 C 193.66164 127.86952 193.38347 128.43906 193.09375 129.03125 L 193.125 128.78125 C 192.77442 128.72271 192.47407 128.6544 192.21875 128.625 C 191.96341 128.5957 191.73402 128.59377 191.53125 128.59375 C 190.14369 128.59377 188.85327 129.00751 187.6875 129.84375 C 186.53278 130.66537 185.55194 131.85109 184.75 133.40625 L 185.5 129.1875 L 179.75 129.1875 L 175.5625 153.84375 L 181.28125 153.84375 L 183.25 142.46875 C 183.66064 140.03331 184.37774 138.16609 185.375 136.875 C 186.3829 135.58393 187.60022 134.93752 189.0625 134.9375 C 189.61751 134.93752 190.14925 135.02614 190.625 135.1875 C 190.77141 135.23718 190.89332 135.31143 191.03125 135.375 C 190.71152 137.11006 190.53125 138.9444 190.53125 140.84375 C 190.53125 144.7579 191.45553 147.90688 193.3125 150.28125 C 195.16944 152.65566 197.64493 153.87795 200.75 153.84375 C 204.58521 153.80154 206.53354 152.79726 207.84375 152.4375 L 209.03125 146.1875 C 207.86548 146.70556 203.3857 147.81251 202.34375 147.8125 C 200.60025 147.81251 199.24037 147.09774 198.25 145.6875 C 197.25962 144.27726 196.78124 142.35015 196.78125 139.875 C 196.78124 136.03284 197.57812 132.81148 199.1875 130.25 C 200.79685 127.68857 202.77315 126.40627 205.15625 126.40625 C 206.30136 126.40627 207.37428 126.667 208.375 127.15625 C 209.37567 127.64555 210.3846 128.4183 211.375 129.46875 L 212.34375 122.78125 C 211.09542 121.97544 209.86325 121.38858 208.65625 121 C 207.4492 120.59711 206.22795 120.40626 205.03125 120.40625 z M 262.90625 121.25 L 260.8125 133.59375 C 260.13858 132.25119 259.31848 131.25523 258.34375 130.625 C 257.38102 129.98113 256.22764 129.65627 254.84375 129.65625 C 253.26729 129.65627 251.75889 130.10952 250.375 131 C 249.63994 131.47714 248.96809 132.09546 248.3125 132.8125 L 249 128.78125 C 248.64943 128.72271 248.34907 128.6544 248.09375 128.625 C 247.83841 128.5957 247.60902 128.59377 247.40625 128.59375 C 246.01868 128.59377 244.72828 129.00751 243.5625 129.84375 C 242.40779 130.66537 241.42694 131.85109 240.625 133.40625 L 241.375 129.1875 L 235.59375 129.1875 L 231.40625 153.84375 L 237.15625 153.84375 L 239.125 142.46875 C 239.53564 140.03331 240.22149 138.16609 241.21875 136.875 C 242.22665 135.58393 243.47523 134.93752 244.9375 134.9375 C 245.49252 134.93752 246.02425 135.02614 246.5 135.1875 C 246.50923 135.19063 246.52205 135.18431 246.53125 135.1875 C 245.74055 136.49108 245.12815 137.93078 244.6875 139.5 C 244.23021 141.17141 244 142.88897 244 144.65625 C 244 147.49214 244.64502 149.73102 245.96875 151.375 C 247.29249 153.01901 249.10058 153.84375 251.375 153.84375 C 252.66262 153.84375 253.85444 153.50521 254.9375 152.875 C 256.02054 152.23111 257.04444 151.24884 258.03125 149.90625 L 257.4375 153.25 L 263.96875 153.25 L 269.4375 121.25 L 262.90625 121.25 z M 145.625 124.28125 L 142.15625 144.34375 C 141.99249 143.04158 141.50001 141.98247 140.65625 141.1875 C 139.60928 140.18741 137.76759 139.38021 135.15625 138.75 L 134 138.5 C 132.86879 138.22602 132.10383 137.96536 131.71875 137.71875 C 131.33366 137.47217 131.15624 137.161 131.15625 136.75 C 131.15624 136.05132 131.50155 135.49491 132.1875 135.125 C 132.88545 134.74142 133.84939 134.56251 135.125 134.5625 C 136.24415 134.56252 137.43596 134.73756 138.6875 135.09375 C 139.93902 135.44996 141.20517 135.97128 142.46875 136.65625 L 143.40625 130.9375 C 142.0464 130.51283 140.69154 130.2055 139.34375 130 C 138.00797 129.78081 136.66514 129.65627 135.28125 129.65625 C 132.11632 129.65627 129.67755 130.36631 127.96875 131.75 C 126.27196 133.1337 125.4375 135.09438 125.4375 137.65625 C 125.4375 139.54686 125.91946 141.02517 126.90625 142.09375 C 127.89303 143.16235 129.53322 143.98327 131.84375 144.53125 L 133.03125 144.78125 C 134.23464 145.06896 135.02115 145.35101 135.40625 145.625 C 135.79132 145.89901 135.96873 146.25681 135.96875 146.75 C 135.96873 147.46241 135.65468 148.0051 134.96875 148.375 C 134.2828 148.7449 133.23482 148.9375 131.875 148.9375 C 130.47905 148.9375 129.11702 148.74104 127.78125 148.34375 C 126.45751 147.94645 125.22979 147.37466 124.0625 146.59375 L 123.0625 152.34375 C 124.56674 152.83694 126.05592 153.22215 127.5 153.46875 C 128.94408 153.71535 130.36609 153.84375 131.75 153.84375 C 135.05933 153.84375 137.62754 153.08704 139.46875 151.59375 C 140.50441 150.74607 141.23439 149.71614 141.6875 148.5 C 141.7054 150.20796 142.24533 151.5225 143.25 152.4375 C 144.27288 153.36909 146.49129 153.93908 148.40625 153.8125 C 149.64435 153.73067 152.84375 152.96875 152.84375 152.96875 L 153.875 148.3125 L 150.71875 148.75 C 148.98096 148.73942 147.94064 149.03558 148.3125 146.5625 C 148.31314 146.57529 148.33173 146.5548 148.34375 146.5 L 150.625 133.0625 L 155.8125 133.0625 L 156.71875 127.8125 L 151.5625 127.8125 L 152 124.96875 L 152.125 124.28125 L 145.625 124.28125 z M 115.59375 129.65625 C 114.07746 129.65627 112.6075 129.76327 111.1875 129.96875 C 109.77952 130.16057 108.4103 130.46018 107.0625 130.84375 L 106.09375 136.4375 C 107.26104 135.80731 108.46722 135.34636 109.71875 135.03125 C 110.97028 134.71617 112.25797 134.56252 113.59375 134.5625 C 115.07392 134.56252 116.19138 134.78423 116.9375 135.25 C 117.69563 135.70212 118.06248 136.37708 118.0625 137.28125 C 118.0625 137.34978 118.0745 137.44905 118.0625 137.53125 C 118.0625 137.61346 118.0361 137.74572 118 137.9375 L 117.9375 138.5 L 114.125 138.5 C 110.3704 138.50001 107.49763 139.28197 105.5 140.84375 C 103.51439 142.39185 102.5 144.63072 102.5 147.5625 C 102.5 149.48048 103.06835 151.01916 104.1875 152.15625 C 105.31868 153.27965 106.83659 153.84375 108.75 153.84375 C 110.1339 153.84375 111.41441 153.51889 112.59375 152.875 C 113.77307 152.21741 114.90974 151.1825 115.96875 149.8125 L 115.40625 153.25 L 121.875 153.25 L 124.125 140.09375 C 124.23328 139.44988 124.3268 138.86051 124.375 138.3125 C 124.4352 137.75083 124.46872 137.24706 124.46875 136.78125 C 124.46872 134.38376 123.73734 132.60201 122.28125 131.4375 C 120.82512 130.25934 118.59018 129.65627 115.59375 129.65625 z M 167.375 129.65625 C 165.26904 129.65627 163.32663 130.08813 161.59375 130.9375 C 159.8729 131.78692 158.39575 133.04353 157.15625 134.6875 C 156.1093 136.05751 155.33481 137.56107 154.78125 139.21875 C 154.23972 140.86275 153.96875 142.55893 153.96875 144.3125 C 153.96875 147.34018 154.82243 149.68605 156.53125 151.34375 C 158.25211 153.00143 160.69084 153.84375 163.84375 153.84375 C 165.45629 153.84375 167.0101 153.67254 168.5625 153.34375 C 170.12689 153.02864 171.70478 152.53258 173.28125 151.875 L 174.28125 146.15625 C 172.62055 147.07416 171.01626 147.7842 169.5 148.25 C 167.99574 148.7158 166.57857 148.9375 165.21875 148.9375 C 163.64229 148.9375 162.45048 148.58355 161.65625 147.84375 C 160.87403 147.10397 160.5 145.96204 160.5 144.46875 C 160.5 144.38656 160.488 144.27571 160.5 144.125 C 160.512 143.96062 160.53124 143.8323 160.53125 143.75 L 175.65625 143.75 L 175.875 142.59375 C 176.01939 141.86767 176.1273 141.19657 176.1875 140.59375 C 176.25971 139.97727 176.28122 139.39176 176.28125 138.84375 C 176.28122 136.03528 175.48752 133.81398 173.875 132.15625 C 172.27447 130.49859 170.10669 129.65627 167.375 129.65625 z M 222.53125 129.65625 C 221.01496 129.65627 219.545 129.76327 218.125 129.96875 C 216.71703 130.16057 215.31654 130.46018 213.96875 130.84375 L 213 136.4375 C 214.16729 135.80731 215.37346 135.34636 216.625 135.03125 C 217.87652 134.71617 219.16421 134.56252 220.5 134.5625 C 221.98016 134.56252 223.09763 134.78423 223.84375 135.25 C 224.60187 135.70212 224.99999 136.37708 225 137.28125 C 225 137.34978 224.98075 137.44905 224.96875 137.53125 C 224.96875 137.61346 224.94235 137.74572 224.90625 137.9375 L 224.84375 138.5 L 221.03125 138.5 C 217.27664 138.50001 214.40388 139.28197 212.40625 140.84375 C 210.42064 142.39185 209.4375 144.63072 209.4375 147.5625 C 209.4375 149.48048 209.9746 151.01916 211.09375 152.15625 C 212.22495 153.27965 213.7741 153.84375 215.6875 153.84375 C 217.0714 153.84375 218.35192 153.51889 219.53125 152.875 C 220.71057 152.2174 221.816 151.1825 222.875 149.8125 L 222.34375 153.25 L 228.8125 153.25 L 231.0625 140.09375 C 231.17078 139.44987 231.23315 138.86051 231.28125 138.3125 C 231.34135 137.75082 231.37498 137.24707 231.375 136.78125 C 231.37498 134.38377 230.64358 132.60201 229.1875 131.4375 C 227.73138 130.25934 225.52769 129.65627 222.53125 129.65625 z M 166.65625 134.5625 C 167.64302 134.56252 168.42236 134.88736 169 135.53125 C 169.57761 136.17516 169.87498 137.02902 169.875 138.125 C 169.875 138.30312 169.86775 138.49573 169.84375 138.6875 C 169.83155 138.86562 169.81735 139.04066 169.78125 139.21875 L 161.40625 139.21875 C 161.87555 137.68438 162.55902 136.53091 163.4375 135.75 C 164.32801 134.95543 165.39267 134.56252 166.65625 134.5625 z M 256.3125 135 C 257.35944 135.00002 258.17236 135.35013 258.75 136.0625 C 259.33965 136.77491 259.62498 137.78842 259.625 139.0625 C 259.62498 141.871 259.10944 144.13512 258.0625 145.875 C 257.02756 147.6149 255.69192 148.5 254.03125 148.5 C 252.94818 148.5 252.10887 148.13235 251.53125 147.40625 C 250.96565 146.66646 250.68749 145.5849 250.6875 144.1875 C 250.68749 141.50233 251.19102 139.30625 252.25 137.59375 C 253.30899 135.86757 254.67586 135.00002 256.3125 135 z M 114.03125 142.875 L 117.15625 142.875 L 117 143.71875 C 116.69914 145.37644 116.10925 146.67586 115.21875 147.59375 C 114.32823 148.49796 113.22997 148.9375 111.90625 148.9375 C 111.05183 148.9375 110.36839 148.69824 109.875 148.21875 C 109.39364 147.73925 109.15624 147.08571 109.15625 146.25 C 109.15624 145.14032 109.55669 144.31172 110.375 143.75 C 111.20533 143.17461 112.41869 142.875 114.03125 142.875 z M 220.96875 142.875 L 224.0625 142.875 L 223.9375 143.71875 C 223.63664 145.37644 223.0155 146.67586 222.125 147.59375 C 221.23448 148.49796 220.13623 148.9375 218.8125 148.9375 C 217.95808 148.9375 217.27464 148.69824 216.78125 148.21875 C 216.29989 147.73925 216.06249 147.08571 216.0625 146.25 C 216.06249 145.14032 216.49418 144.31172 217.3125 143.75 C 218.14283 143.1746 219.35619 142.87501 220.96875 142.875 z "
     id="path3105" />
  <path
     style="fill:#ffffff"
     d="M 80.21875 118.5 L 74.40625 152.28125 L 81 152.28125 L 85.15625 128.65625 L 86 152.3125 L 89.75 152.3125 L 99.25 128.65625 L 95.09375 152.28125 L 101.6875 152.28125 L 107.5 118.5 L 97.59375 118.5 L 90.21875 139.53125 L 89.9375 118.5 L 80.21875 118.5 z M 206.84375 118.875 C 204.64633 118.87501 202.59602 119.49314 200.6875 120.6875 C 198.78927 121.88192 197.16396 123.56517 195.8125 125.78125 C 195.4671 126.34985 195.16971 126.95725 194.875 127.5625 L 194.9375 127.25 C 194.58692 127.19146 194.28657 127.1544 194.03125 127.125 C 193.77591 127.0957 193.54652 127.09377 193.34375 127.09375 C 191.95619 127.09377 190.66577 127.50751 189.5 128.34375 C 188.34528 129.16537 187.36444 130.35109 186.5625 131.90625 L 187.3125 127.6875 L 181.5625 127.6875 L 177.375 152.3125 L 183.09375 152.3125 L 185.0625 140.96875 C 185.47314 138.53331 186.19024 136.66609 187.1875 135.375 C 188.1954 134.08393 189.41272 133.43752 190.875 133.4375 C 191.43001 133.43752 191.96175 133.52614 192.4375 133.6875 C 192.5824 133.73667 192.70716 133.78098 192.84375 133.84375 C 192.52048 135.58747 192.34375 137.40267 192.34375 139.3125 C 192.34375 143.22665 193.26803 146.37563 195.125 148.75 C 196.98194 151.12441 199.45743 152.3467 202.5625 152.3125 C 206.39771 152.27029 208.34604 151.29726 209.65625 150.9375 L 210.84375 144.6875 C 209.67798 145.20556 205.1982 146.31251 204.15625 146.3125 C 202.41275 146.31251 201.05287 145.59774 200.0625 144.1875 C 199.07212 142.77726 198.59374 140.8189 198.59375 138.34375 C 198.59374 134.50159 199.39062 131.31148 201 128.75 C 202.60935 126.18857 204.58565 124.90627 206.96875 124.90625 C 208.11386 124.90627 209.18678 125.167 210.1875 125.65625 C 211.18817 126.14555 212.1971 126.88705 213.1875 127.9375 L 214.15625 121.28125 C 212.90792 120.47544 211.67575 119.88858 210.46875 119.5 C 209.2617 119.09711 208.04045 118.87501 206.84375 118.875 z M 264.71875 119.75 L 262.625 132.09375 C 261.95108 130.75119 261.13098 129.75523 260.15625 129.125 C 259.19352 128.48113 258.04014 128.15627 256.65625 128.15625 C 255.07979 128.15627 253.57139 128.60952 252.1875 129.5 C 251.45244 129.97714 250.78059 130.56421 250.125 131.28125 L 250.8125 127.25 C 250.46193 127.19146 250.16157 127.1544 249.90625 127.125 C 249.65091 127.0957 249.42152 127.09377 249.21875 127.09375 C 247.83118 127.09377 246.54078 127.50751 245.375 128.34375 C 244.22029 129.16537 243.23944 130.35109 242.4375 131.90625 L 243.1875 127.6875 L 237.40625 127.6875 L 233.21875 152.3125 L 238.96875 152.3125 L 240.9375 140.96875 C 241.34814 138.53331 242.03399 136.66609 243.03125 135.375 C 244.03915 134.08393 245.28773 133.43752 246.75 133.4375 C 247.30502 133.43752 247.83675 133.52614 248.3125 133.6875 C 247.53068 134.98296 246.93721 136.41178 246.5 137.96875 C 246.04271 139.64016 245.8125 141.35772 245.8125 143.125 C 245.8125 145.96089 246.45752 148.19977 247.78125 149.84375 C 249.10499 151.48776 250.91308 152.3125 253.1875 152.3125 C 254.47512 152.3125 255.66694 152.00521 256.75 151.375 C 257.83304 150.73111 258.85694 149.74884 259.84375 148.40625 L 259.25 151.71875 L 265.78125 151.71875 L 271.25 119.75 L 264.71875 119.75 z M 147.4375 122.78125 L 143.96875 142.84375 C 143.80683 141.53516 143.3155 140.48528 142.46875 139.6875 C 141.42178 138.68741 139.58009 137.88021 136.96875 137.25 L 135.8125 137 C 134.68129 136.72602 133.91633 136.46536 133.53125 136.21875 C 133.14616 135.97217 132.96874 135.62975 132.96875 135.21875 C 132.96874 134.52007 133.31405 133.99491 134 133.625 C 134.69795 133.24142 135.66189 133.03126 136.9375 133.03125 C 138.05665 133.03127 139.24846 133.23756 140.5 133.59375 C 141.75152 133.94996 143.01767 134.47128 144.28125 135.15625 L 145.21875 129.4375 C 143.8589 129.01283 142.53529 128.67425 141.1875 128.46875 C 139.85172 128.24956 138.47764 128.15627 137.09375 128.15625 C 133.92882 128.15627 131.49005 128.83506 129.78125 130.21875 C 128.08446 131.60245 127.25 133.59438 127.25 136.15625 C 127.25 138.04686 127.73196 139.52517 128.71875 140.59375 C 129.70553 141.66235 131.34572 142.45202 133.65625 143 L 134.84375 143.25 C 136.04714 143.53771 136.83365 143.81976 137.21875 144.09375 C 137.60382 144.36776 137.78123 144.75681 137.78125 145.25 C 137.78123 145.96241 137.46718 146.5051 136.78125 146.875 C 136.0953 147.2449 135.04732 147.4375 133.6875 147.4375 C 132.29155 147.4375 130.92952 147.24104 129.59375 146.84375 C 128.27001 146.44645 127.04229 145.84341 125.875 145.0625 L 124.875 150.84375 C 126.37924 151.33694 127.86842 151.6909 129.3125 151.9375 C 130.75658 152.1841 132.17859 152.3125 133.5625 152.3125 C 136.87183 152.3125 139.44004 151.58704 141.28125 150.09375 C 142.31691 149.24607 143.04689 148.18489 143.5 146.96875 C 143.51201 148.69186 144.05176 150.01697 145.0625 150.9375 C 146.08538 151.86909 148.30379 152.43908 150.21875 152.3125 C 151.45685 152.23067 154.65625 151.46875 154.65625 151.46875 L 155.6875 146.78125 L 152.53125 147.25 C 150.79346 147.23942 149.75314 147.53558 150.125 145.0625 C 150.12564 145.07529 150.1442 145.0548 150.15625 145 L 152.4375 131.5625 L 157.625 131.5625 L 158.53125 126.28125 L 153.375 126.28125 L 153.8125 123.46875 L 153.9375 122.78125 L 147.4375 122.78125 z M 117.40625 128.15625 C 115.88996 128.15627 114.42 128.26327 113 128.46875 C 111.59202 128.66057 110.2228 128.92893 108.875 129.3125 L 107.90625 134.9375 C 109.07354 134.30731 110.27972 133.84636 111.53125 133.53125 C 112.78278 133.21617 114.07047 133.03127 115.40625 133.03125 C 116.88642 133.03127 118.00388 133.28423 118.75 133.75 C 119.50813 134.20212 119.87498 134.87708 119.875 135.78125 C 119.875 135.84978 119.887 135.9178 119.875 136 C 119.875 136.08221 119.8486 136.21447 119.8125 136.40625 L 119.75 137 L 115.9375 137 C 112.1829 137.00001 109.31013 137.78197 107.3125 139.34375 C 105.32689 140.89185 104.3125 143.13072 104.3125 146.0625 C 104.3125 147.98048 104.88085 149.48791 106 150.625 C 107.13118 151.7484 108.64909 152.3125 110.5625 152.3125 C 111.9464 152.3125 113.22691 151.98764 114.40625 151.34375 C 115.58557 150.68616 116.72224 149.6825 117.78125 148.3125 L 117.21875 151.71875 L 123.6875 151.71875 L 125.9375 138.59375 C 126.04578 137.94988 126.1394 137.36051 126.1875 136.8125 C 126.2477 136.25083 126.28122 135.71581 126.28125 135.25 C 126.28122 132.85251 125.54984 131.10201 124.09375 129.9375 C 122.63762 128.75934 120.40268 128.15627 117.40625 128.15625 z M 169.1875 128.15625 C 167.08154 128.15627 165.13913 128.58813 163.40625 129.4375 C 161.6854 130.28692 160.20825 131.51228 158.96875 133.15625 C 157.9218 134.52626 157.14731 136.06107 156.59375 137.71875 C 156.05222 139.36275 155.78125 141.05893 155.78125 142.8125 C 155.78125 145.84018 156.63493 148.18605 158.34375 149.84375 C 160.06461 151.50143 162.50334 152.3125 165.65625 152.3125 C 167.26879 152.3125 168.8226 152.17254 170.375 151.84375 C 171.93939 151.52864 173.51728 151.03258 175.09375 150.375 L 176.09375 144.65625 C 174.43305 145.57416 172.82876 146.25295 171.3125 146.71875 C 169.80824 147.18455 168.39107 147.4375 167.03125 147.4375 C 165.45479 147.4375 164.26298 147.0523 163.46875 146.3125 C 162.68653 145.57272 162.3125 144.46204 162.3125 142.96875 C 162.3125 142.88656 162.3005 142.77571 162.3125 142.625 C 162.3245 142.46062 162.34374 142.3323 162.34375 142.25 L 177.46875 142.25 L 177.6875 141.09375 C 177.83189 140.36767 177.9398 139.69657 178 139.09375 C 178.07221 138.47727 178.09372 137.89176 178.09375 137.34375 C 178.09372 134.53528 177.30002 132.31398 175.6875 130.65625 C 174.08697 128.99859 171.91919 128.15627 169.1875 128.15625 z M 224.34375 128.15625 C 222.82746 128.15627 221.3575 128.26327 219.9375 128.46875 C 218.52953 128.66057 217.12904 128.92893 215.78125 129.3125 L 214.8125 134.9375 C 215.97979 134.30731 217.18596 133.84636 218.4375 133.53125 C 219.68902 133.21617 220.97671 133.03127 222.3125 133.03125 C 223.79266 133.03127 224.91013 133.28423 225.65625 133.75 C 226.41437 134.20212 226.81249 134.87708 226.8125 135.78125 C 226.8125 135.84978 226.79325 135.9178 226.78125 136 C 226.78125 136.08221 226.75485 136.21447 226.71875 136.40625 L 226.65625 137 L 222.84375 137 C 219.08914 137.00001 216.21638 137.78197 214.21875 139.34375 C 212.23314 140.89185 211.25 143.13072 211.25 146.0625 C 211.25 147.98048 211.7871 149.48791 212.90625 150.625 C 214.03745 151.7484 215.5866 152.3125 217.5 152.3125 C 218.8839 152.3125 220.16442 151.98764 221.34375 151.34375 C 222.52307 150.68615 223.6285 149.6825 224.6875 148.3125 L 224.15625 151.71875 L 230.625 151.71875 L 232.875 138.59375 C 232.98328 137.94987 233.04555 137.36051 233.09375 136.8125 C 233.15385 136.25082 233.18748 135.71582 233.1875 135.25 C 233.18748 132.85252 232.45608 131.10201 231 129.9375 C 229.54388 128.75934 227.34019 128.15627 224.34375 128.15625 z M 168.46875 133.03125 C 169.45552 133.03127 170.23486 133.35611 170.8125 134 C 171.39011 134.64391 171.68748 135.52902 171.6875 136.625 C 171.6875 136.80312 171.68025 136.99573 171.65625 137.1875 C 171.64405 137.36562 171.62985 137.54066 171.59375 137.71875 L 163.21875 137.71875 C 163.68805 136.18438 164.37152 135.03091 165.25 134.25 C 166.14051 133.45543 167.20517 133.03127 168.46875 133.03125 z M 258.125 133.5 C 259.17194 133.50002 259.98486 133.85013 260.5625 134.5625 C 261.15215 135.27491 261.43748 136.25717 261.4375 137.53125 C 261.43748 140.33975 260.92194 142.63512 259.875 144.375 C 258.84006 146.1149 257.50442 146.96875 255.84375 146.96875 C 254.76068 146.96875 253.92137 146.6011 253.34375 145.875 C 252.77815 145.13521 252.49999 144.0849 252.5 142.6875 C 252.49999 140.00233 253.03477 137.80625 254.09375 136.09375 C 255.15274 134.36757 256.48836 133.50002 258.125 133.5 z M 115.84375 141.375 L 118.96875 141.375 L 118.8125 142.21875 C 118.51164 143.87644 117.92175 145.14461 117.03125 146.0625 C 116.14073 146.96671 115.04247 147.4375 113.71875 147.4375 C 112.86433 147.4375 112.18089 147.19824 111.6875 146.71875 C 111.20614 146.23925 110.96874 145.58571 110.96875 144.75 C 110.96874 143.64032 111.36919 142.78047 112.1875 142.21875 C 113.01783 141.64336 114.23119 141.375 115.84375 141.375 z M 222.78125 141.375 L 225.875 141.375 L 225.75 142.21875 C 225.44914 143.87644 224.828 145.14461 223.9375 146.0625 C 223.04698 146.96671 221.94873 147.4375 220.625 147.4375 C 219.77058 147.4375 219.08714 147.19824 218.59375 146.71875 C 218.11239 146.23925 217.87499 145.58571 217.875 144.75 C 217.87499 143.64032 218.30668 142.78047 219.125 142.21875 C 219.95533 141.64335 221.16869 141.37501 222.78125 141.375 z "
     id="path5077" />
</svg>
