<?xml version="1.0" encoding="UTF-8" standalone="no"?>
<!-- Created with Inkscape (http://www.inkscape.org/) -->
<svg id="svg5909" xmlns:rdf="http://www.w3.org/1999/02/22-rdf-syntax-ns#" xmlns="http://www.w3.org/2000/svg" height="214.27379" width="345.65811" version="1.1" xmlns:cc="http://creativecommons.org/ns#" xmlns:dc="http://purl.org/dc/elements/1.1/">
 <defs id="defs5911"></defs>
 <metadata id="metadata5914">
  <rdf:RDF>
   <cc:Work rdf:about="">
    <dc:format>image/svg+xml</dc:format>
    <dc:type rdf:resource="http://purl.org/dc/dcmitype/StillImage"/>
    <dc:title/>
   </cc:Work>
  </rdf:RDF>
 </metadata>
 <g id="layer1" transform="translate(-54.341883,-88.076463)">
  <g id="g5830" transform="translate(40.56945,-119.90959)">
   <rect id="rect3878" fill-rule="evenodd" rx="18" ry="18" height="214.27379" width="345.65811" y="207.98605" x="13.772433" fill="#264981"/>
   <g id="g4996" transform="translate(-109.50067,796.3526)">
    <rect id="rect4850" fill-rule="evenodd" transform="matrix(1,0,-0.1480292,0.98898299,0,0)" height="85.677727" width="23.415768" y="-502.59326" x="193.5193" fill="#FFF"/>
    <path id="path4999" fill="#FFF" d="m356.49856-496.01578-3.39286,18.21429s-21.27649-7.94273-28.75-0.17858c-6.62886,6.88666,4.03998,11.96453,10.89285,14.82143,7.82078,3.26042,23.90669,15.14238,15.71429,33.17282-9.86823,21.71874-40.62174,22.07716-59.82143,14.28571l2.85715-18.52996s30.72905,12.44373,35.61865-1.36729c4.27823-12.08415-22.88634-10.40364-28.11865-28.98985-4.27786-15.19582,6.1825-27.22612,19.64286-31.78572,13.46036-4.55959,35.35714,0.35715,35.35714,0.35715z"/>
    <path id="path4870" fill="#FFF" d="m393.09677-496.5174c-3.63746,0.36943-7.19886,3.42099-8.28125,6l-32.40625,77.65625h22.09375l5-12.1875h28.21875l2.65625,12.1875h20.5l-18.28125-83.65625h-19.5zm4.46875,24.125s6.42857,29.4375,6.875,29.4375h-18.5625l11.6875-29.4375z"/>
    <g id="g4992" transform="translate(0,-0.31423743)">
     <path id="path4848" d="m198.00568-496.20167s7.39676,3.68896,8.43155,8.98305l9.25775,47.36355,21.55036-55.99747,22.73536-0.25254-34.12247,83.55667h-22.93111l-22.09821-81.74105s12.09228-1.51669,17.17677-1.91221z" fill="#FFF"/>
     <path id="path4895" fill="#ecae05" d="m161.71654-496.20167,36.28914,0c3.77012,0,7.39506,3.68929,8.43155,8.98305l6.47983,33.09515s-0.53829-1.83294-3.65065-5.91017c-21.04162-33.9438-51.75549-31.60659-47.54987-36.16803z"/>
    </g>
   </g>
   <rect id="rect5023" fill-rule="evenodd" height="45.702362" width="345.65811" y="224.41464" x="13.772433" fill="#272725"/>
  </g>
 </g>
</svg>
